<svg width="21" height="22" viewBox="0 0 21 22" fill="none" xmlns="http://www.w3.org/2000/svg">
<path fill-rule="evenodd" clip-rule="evenodd" d="M1.8741 0.998826C1.48357 0.608302 0.85041 0.608302 0.459885 0.998826C0.0693611 1.38935 0.0693611 2.02252 0.459885 2.41304L9.1074 11.0605L0.58098 19.587C0.190456 19.9775 0.190456 20.6107 0.58098 21.0012C0.971504 21.3917 1.60467 21.3917 1.99519 21.0012L10.5216 12.4748L19.048 21.0012C19.4385 21.3917 20.0717 21.3917 20.4622 21.0012C20.8528 20.6107 20.8528 19.9775 20.4622 19.587L11.9358 11.0605L20.5833 2.41304C20.9739 2.02252 20.9739 1.38935 20.5833 0.998827C20.1928 0.608303 19.5596 0.608303 19.1691 0.998827L10.5216 9.64634L1.8741 0.998826Z" fill="white"/>
</svg>
