<svg width="25" height="25" viewBox="0 0 25 25" fill="none" xmlns="http://www.w3.org/2000/svg">
<path d="M4.35193 6.62186L12.5805 12.6219L20.3519 6.62186M21.3519 8.82181V16.4218C21.3519 17.5419 21.3521 18.1021 21.1342 18.5299C20.9424 18.9062 20.636 19.2121 20.2597 19.4038C19.8319 19.6218 19.2722 19.6219 18.1521 19.6219H6.55212C5.43202 19.6219 4.87155 19.6218 4.44373 19.4038C4.0674 19.2121 3.76166 18.9062 3.56992 18.5299C3.35193 18.1021 3.35193 17.5419 3.35193 16.4218V8.82181C3.35193 7.7017 3.35193 7.14172 3.56992 6.7139C3.76166 6.33757 4.0674 6.03159 4.44373 5.83984C4.87155 5.62186 5.43202 5.62186 6.55212 5.62186H18.1521C19.2722 5.62186 19.8319 5.62186 20.2597 5.83984C20.636 6.03159 20.9424 6.33757 21.1342 6.7139C21.3521 7.14172 21.3519 7.7017 21.3519 8.82181Z" stroke="white" stroke-width="1.5" stroke-linecap="round" stroke-linejoin="round"/>
</svg>
