<svg width="34" height="49" viewBox="0 0 34 49" fill="none" xmlns="http://www.w3.org/2000/svg">
<path d="M16.9145 0.915283C7.72983 0.915283 0.25769 8.38851 0.25769 17.5734C0.25769 26.4147 15.3707 47.071 16.0142 47.9457L16.6148 48.763C16.685 48.8591 16.7968 48.9153 16.9145 48.9153C17.034 48.9153 17.1451 48.8591 17.2161 48.763L17.8162 47.9457C18.4601 47.071 33.5728 26.4147 33.5728 17.5734C33.5728 8.38851 26.0994 0.915283 16.9145 0.915283ZM16.9145 11.6065C20.2054 11.6065 22.8814 14.2826 22.8814 17.5734C22.8814 20.8625 20.2053 23.5403 16.9145 23.5403C13.6255 23.5403 10.9476 20.8625 10.9476 17.5734C10.9476 14.2826 13.6254 11.6065 16.9145 11.6065Z" fill="#D7272A"/>
</svg>
