<svg width="45" height="45" viewBox="0 0 45 45" fill="none" xmlns="http://www.w3.org/2000/svg">
<rect x="0.351929" y="0.621857" width="44" height="44" rx="22" fill="#28A8EA"/>
<path fill-rule="evenodd" clip-rule="evenodd" d="M14.5893 22.0793C19.4212 19.9624 22.6431 18.5669 24.2553 17.8926C28.8582 15.9674 29.8147 15.633 30.438 15.622C30.5752 15.6195 30.8817 15.6537 31.0803 15.8157C31.248 15.9526 31.2942 16.1374 31.3162 16.2671C31.3383 16.3968 31.3658 16.6923 31.3439 16.9232C31.0946 19.5586 30.0152 25.954 29.4661 28.9057C29.2338 30.1547 28.7763 30.5735 28.3334 30.6144C27.3709 30.7035 26.64 29.9748 25.7077 29.3603C24.249 28.3987 23.4248 27.8001 22.0089 26.8619C20.3724 25.7774 21.4332 25.1815 22.3658 24.2074C22.6099 23.9526 26.8508 20.0737 26.9329 19.7219C26.9432 19.6779 26.9527 19.5138 26.8558 19.4272C26.7588 19.3406 26.6158 19.3702 26.5126 19.3938C26.3663 19.4272 24.0358 20.976 19.5213 24.0404C18.8598 24.4971 18.2607 24.7197 17.7239 24.708C17.1321 24.6951 15.9937 24.3716 15.1474 24.095C14.1094 23.7557 13.2845 23.5763 13.3563 23.0001C13.3937 22.6999 13.8047 22.393 14.5893 22.0793Z" fill="white"/>
</svg>
