<svg width="45" height="45" viewBox="0 0 45 45" fill="none" xmlns="http://www.w3.org/2000/svg">
<rect x="0.351929" y="0.621857" width="44" height="44" rx="22" fill="#53F26F"/>
<g clip-path="url(#clip0_45_200)">
<path d="M34.3519 22.274C34.3519 28.7088 29.1345 33.9262 22.5258 33.9262C20.4389 33.9262 18.5258 33.4045 16.7867 32.5349L10.3519 34.6219L12.4389 28.361C11.3954 26.6219 10.6998 24.5349 10.6998 22.274C10.6998 15.8392 15.9171 10.6219 22.5258 10.6219C29.1345 10.6219 34.3519 15.8392 34.3519 22.274ZM22.5258 12.361C17.1345 12.361 12.6128 16.7088 12.6128 22.274C12.6128 24.361 13.3085 26.4479 14.5258 28.0132L13.3085 31.6653L17.1345 30.4479C18.6998 31.4914 20.6128 32.0132 22.5258 32.0132C27.9171 32.0132 32.4389 27.6653 32.4389 22.1001C32.4389 16.8827 28.0911 12.361 22.5258 12.361ZM28.4389 25.0566C28.4389 24.8827 28.0911 24.8827 27.9171 24.7088C27.5693 24.5349 26.178 23.8392 26.0041 23.8392C25.6563 23.6653 25.4824 23.6653 25.3085 24.0132C25.1345 24.361 24.6128 24.8827 24.4389 25.0566C24.265 25.2306 24.0911 25.2306 23.7432 25.0566C23.3954 24.8827 22.5258 24.5349 21.4824 23.6653C20.6128 22.9697 20.0911 21.9262 19.9171 21.7523C19.7432 21.4045 19.9171 21.2306 20.0911 21.2306C20.265 21.0566 20.4389 20.8827 20.6128 20.7088C20.7867 20.5349 20.7867 20.361 20.9606 20.1871C21.1345 20.0132 20.9606 19.8392 20.9606 19.6653C20.9606 19.4914 20.265 18.1001 20.0911 17.5784C19.9171 17.0566 19.5693 17.0566 19.3954 17.0566C19.2215 17.0566 19.0476 17.0566 18.8737 17.0566C18.6998 17.0566 18.0041 17.0566 17.8302 17.2306C17.4824 17.5784 16.7867 18.274 16.7867 19.6653C16.7867 21.0566 17.8302 22.4479 18.0041 22.6219C18.178 22.7958 20.0911 25.7523 22.8737 26.9697C25.8302 28.1871 25.8302 27.6653 26.3519 27.6653C26.8737 27.6653 28.0911 26.9697 28.265 26.274C28.6128 25.7523 28.6128 25.0566 28.4389 25.0566Z" fill="white"/>
</g>
<defs>
<clipPath id="clip0_45_200">
<rect width="24" height="24" fill="white" transform="translate(10.3519 10.6219)"/>
</clipPath>
</defs>
</svg>
